# Vectary OBJ Export units=mm
mtllib Project Name.mtl 
o 000_Layer_1
g Layer_1
usemtl _100001
v 0.796 0.471 0.000
v 0.904 0.070 0.000
v 0.101 0.070 0.000
v 0.502 0.765 0.000
v 0.101 0.873 0.000
v -0.300 0.765 0.000
v -0.594 0.471 0.000
v -0.701 0.070 0.000
v -0.594 -0.331 0.000
v -0.300 -0.625 0.000
v 0.101 -0.732 0.000
v 0.502 -0.625 0.000
v 0.796 -0.331 0.000
v 0.796 0.471 11.326
v 0.904 0.070 11.326
v 0.502 0.765 11.326
v 0.101 0.873 11.326
v -0.300 0.765 11.326
v -0.594 0.471 11.326
v -0.701 0.070 11.326
v -0.594 -0.331 11.326
v -0.300 -0.625 11.326
v 0.101 -0.732 11.326
v 0.502 -0.625 11.326
v 0.796 -0.331 11.326
v 0.101 0.070 11.326
v 1.359 0.797 11.326
v 1.554 0.070 11.326
v 0.101 0.070 11.326
v 0.827 1.328 11.326
v 0.101 1.523 11.326
v -0.625 1.328 11.326
v -1.157 0.797 11.326
v -1.351 0.070 11.326
v -1.157 -0.656 11.326
v -0.625 -1.188 11.326
v 0.101 -1.382 11.326
v 0.827 -1.188 11.326
v 1.359 -0.656 11.326
v 1.359 0.797 11.421
v 1.554 0.070 11.421
v 0.827 1.328 11.421
v 0.101 1.523 11.421
v -0.625 1.328 11.421
v -1.157 0.797 11.421
v -1.351 0.070 11.421
v -1.157 -0.656 11.421
v -0.625 -1.188 11.421
v 0.101 -1.382 11.421
v 0.827 -1.188 11.421
v 1.359 -0.656 11.421
v 0.101 0.070 13.672
vn 0.000 0.000 -1.000
vn 0.866 0.500 0.000
vn 0.000 0.000 -1.000
vn 1.000 -0.000 0.000
vn 0.000 0.000 -1.000
vn 0.000 0.000 -1.000
vn 0.500 0.866 0.000
vn 0.000 0.000 -1.000
vn 0.000 1.000 0.000
vn 0.000 0.000 -1.000
vn -0.500 0.866 0.000
vn 0.000 0.000 -1.000
vn -0.866 0.500 0.000
vn 0.000 0.000 -1.000
vn -1.000 0.000 0.000
vn 0.000 0.000 -1.000
vn -0.866 -0.500 0.000
vn 0.000 0.000 -1.000
vn -0.500 -0.866 0.000
vn 0.000 0.000 -1.000
vn -0.000 -1.000 0.000
vn 0.000 0.000 -1.000
vn 0.500 -0.866 0.000
vn 0.000 0.000 -1.000
vn 0.866 -0.500 0.000
vn 0.866 0.500 0.000
vn 0.000 0.000 1.000
vn 1.000 -0.000 0.000
vn 0.000 0.000 1.000
vn 0.500 0.866 0.000
vn 0.000 0.000 1.000
vn 0.000 1.000 0.000
vn 0.000 0.000 1.000
vn -0.500 0.866 0.000
vn -0.000 0.000 1.000
vn -0.866 0.500 0.000
vn -0.000 0.000 1.000
vn -1.000 0.000 0.000
vn 0.000 0.000 1.000
vn -0.866 -0.500 0.000
vn 0.000 0.000 1.000
vn -0.500 -0.866 0.000
vn -0.000 0.000 1.000
vn -0.000 -1.000 0.000
vn -0.000 0.000 1.000
vn 0.500 -0.866 0.000
vn 0.000 0.000 1.000
vn 0.866 -0.500 0.000
vn 0.000 0.000 1.000
vn 0.000 0.000 1.000
vn 0.000 0.000 -1.000
vn 0.866 0.500 0.000
vn 0.000 0.000 -1.000
vn 1.000 -0.000 0.000
vn -0.000 0.000 -1.000
vn -0.000 0.000 -1.000
vn 0.500 0.866 0.000
vn -0.000 0.000 -1.000
vn -0.000 1.000 0.000
vn 0.000 0.000 -1.000
vn -0.500 0.866 0.000
vn -0.000 0.000 -1.000
vn -0.866 0.500 0.000
vn -0.000 0.000 -1.000
vn -1.000 0.000 0.000
vn 0.000 0.000 -1.000
vn -0.866 -0.500 0.000
vn 0.000 0.000 -1.000
vn -0.500 -0.866 0.000
vn -0.000 0.000 -1.000
vn 0.000 -1.000 0.000
vn 0.000 0.000 -1.000
vn 0.500 -0.866 0.000
vn 0.000 0.000 -1.000
vn 0.866 -0.500 0.000
vn 0.887 0.422 0.188
vn 0.809 0.557 0.188
vn 0.845 0.382 0.375
vn 0.753 0.541 0.375
vn 0.979 0.078 0.188
vn 0.979 -0.078 0.188
vn 0.923 0.092 0.375
vn 0.923 -0.092 0.375
vn 0.557 0.809 0.188
vn 0.422 0.887 0.188
vn 0.541 0.753 0.375
vn 0.382 0.845 0.375
vn 0.078 0.979 0.188
vn -0.078 0.979 0.188
vn 0.092 0.923 0.375
vn -0.092 0.923 0.375
vn -0.422 0.887 0.188
vn -0.557 0.809 0.188
vn -0.382 0.845 0.375
vn -0.541 0.753 0.375
vn -0.809 0.557 0.188
vn -0.887 0.422 0.188
vn -0.753 0.541 0.375
vn -0.845 0.382 0.375
vn -0.979 0.078 0.188
vn -0.979 -0.078 0.188
vn -0.923 0.092 0.375
vn -0.923 -0.092 0.375
vn -0.887 -0.422 0.188
vn -0.809 -0.557 0.188
vn -0.845 -0.382 0.375
vn -0.753 -0.541 0.375
vn -0.557 -0.809 0.188
vn -0.422 -0.887 0.188
vn -0.541 -0.753 0.375
vn -0.382 -0.845 0.375
vn -0.078 -0.979 0.188
vn 0.078 -0.979 0.188
vn -0.092 -0.923 0.375
vn 0.092 -0.923 0.375
vn 0.422 -0.887 0.188
vn 0.557 -0.809 0.188
vn 0.382 -0.845 0.375
vn 0.541 -0.753 0.375
vn 0.809 -0.557 0.188
vn 0.887 -0.422 0.188
vn 0.753 -0.541 0.375
vn 0.845 -0.382 0.375
vn 0.797 0.214 0.565
vn 0.584 0.584 0.565
vn 0.214 0.797 0.565
vn -0.214 0.797 0.565
vn -0.584 0.584 0.565
vn -0.797 0.214 0.565
vn -0.797 -0.214 0.565
vn -0.584 -0.584 0.565
vn -0.214 -0.797 0.565
vn 0.214 -0.797 0.565
vn 0.584 -0.584 0.565
vn 0.797 -0.214 0.565
f 1//1 2//3 3//5 
f 4//6 1//1 3//5 
f 5//8 4//6 3//5 
f 6//10 5//8 3//5 
f 7//12 6//10 3//5 
f 8//14 7//12 3//5 
f 9//16 8//14 3//5 
f 10//18 9//16 3//5 
f 11//20 10//18 3//5 
f 12//22 11//20 3//5 
f 13//24 12//22 3//5 
f 2//3 13//24 3//5 
f 14//26 15//28 2//4 1//2 
f 16//30 14//26 1//2 4//7 
f 17//32 16//30 4//7 5//9 
f 18//34 17//32 5//9 6//11 
f 19//36 18//34 6//11 7//13 
f 20//38 19//36 7//13 8//15 
f 21//40 20//38 8//15 9//17 
f 22//42 21//40 9//17 10//19 
f 23//44 22//42 10//19 11//21 
f 24//46 23//44 11//21 12//23 
f 25//48 24//46 12//23 13//25 
f 15//28 25//48 13//25 2//4 
f 14//27 26//50 15//29 
f 16//31 26//50 14//27 
f 17//33 26//50 16//31 
f 18//35 26//50 17//33 
f 19//37 26//50 18//35 
f 20//39 26//50 19//37 
f 21//41 26//50 20//39 
f 22//43 26//50 21//41 
f 23//45 26//50 22//43 
f 24//47 26//50 23//45 
f 25//49 26//50 24//47 
f 15//29 26//50 25//49 
f 27//51 28//53 29//55 
f 30//56 27//51 29//55 
f 31//58 30//56 29//55 
f 32//60 31//58 29//55 
f 33//62 32//60 29//55 
f 34//64 33//62 29//55 
f 35//66 34//64 29//55 
f 36//68 35//66 29//55 
f 37//70 36//68 29//55 
f 38//72 37//70 29//55 
f 39//74 38//72 29//55 
f 28//53 39//74 29//55 
f 40//76 41//80 28//54 27//52 
f 42//84 40//77 27//52 30//57 
f 43//88 42//85 30//57 31//59 
f 44//92 43//89 31//59 32//61 
f 45//96 44//93 32//61 33//63 
f 46//100 45//97 33//63 34//65 
f 47//104 46//101 34//65 35//67 
f 48//108 47//105 35//67 36//69 
f 49//112 48//109 36//69 37//71 
f 50//116 49//113 37//71 38//73 
f 51//120 50//117 38//73 39//75 
f 41//81 51//121 39//75 28//54 
f 40//78 52//124 41//82 
f 42//86 52//125 40//79 
f 43//90 52//126 42//87 
f 44//94 52//127 43//91 
f 45//98 52//128 44//95 
f 46//102 52//129 45//99 
f 47//106 52//130 46//103 
f 48//110 52//131 47//107 
f 49//114 52//132 48//111 
f 50//118 52//133 49//115 
f 51//122 52//134 50//119 
f 41//83 52//135 51//123 
